<svg width="660" height="450" xmlns="http://www.w3.org/2000/svg" xmlns:xlink="http://www.w3.org/1999/xlink" overflow="hidden"><defs><clipPath id="clip0"><rect x="1870" y="1069" width="660" height="450"/></clipPath><clipPath id="clip1"><rect x="2035" y="1069" width="330" height="331"/></clipPath><clipPath id="clip2"><rect x="2035" y="1069" width="330" height="331"/></clipPath><clipPath id="clip3"><rect x="2035" y="1069" width="330" height="331"/></clipPath></defs><g clip-path="url(#clip0)" transform="translate(-1870 -1069)"><g clip-path="url(#clip1)"><g clip-path="url(#clip2)"><g clip-path="url(#clip3)"><path d="M2346.44 1344 2212.03 1110.25C2208.38 1103.7 2200.1 1101.35 2193.55 1105.01 2191.35 1106.24 2189.54 1108.05 2188.31 1110.25L2053.56 1344C2049.79 1350.63 2052.11 1359.05 2058.74 1362.82 2060.83 1364.01 2063.19 1364.63 2065.59 1364.63L2334.41 1364.63C2342.03 1364.64 2348.22 1358.48 2348.24 1350.86 2348.25 1348.45 2347.63 1346.09 2346.44 1344ZM2340.38 1354.38C2339.15 1356.5 2336.86 1357.79 2334.41 1357.75L2065.59 1357.75C2063.14 1357.79 2060.85 1356.5 2059.62 1354.37 2058.33 1352.25 2058.3 1349.6 2059.52 1347.44L2194.32 1113.59C2196.14 1110.36 2200.23 1109.21 2203.46 1111.03 2204.56 1111.65 2205.47 1112.57 2206.07 1113.69L2340.43 1347.34C2341.69 1349.52 2341.67 1352.21 2340.38 1354.38Z" stroke="#FFFFFF" stroke-width="10.3125" fill="#FFFFFF"/><path d="M2200 1323.31C2197.92 1323.37 2195.91 1322.54 2194.48 1321.04 2193 1319.56 2192.19 1317.53 2192.25 1315.44 2192.16 1313.35 2192.96 1311.32 2194.46 1309.86 2195.93 1308.41 2197.93 1307.62 2200 1307.69 2202.11 1307.63 2204.15 1308.42 2205.68 1309.88 2207.22 1311.31 2208.06 1313.34 2207.98 1315.44 2208.03 1317.54 2207.19 1319.57 2205.66 1321.02 2204.17 1322.52 2202.12 1323.35 2200 1323.31Z" stroke="#FFFFFF" stroke-width="10.3125" fill="#FFFFFF"/><path d="M2196.22 1284.19 2195.11 1174.83 2204.43 1174.83 2203.32 1284.19 2196.22 1284.19Z" stroke="#FFFFFF" stroke-width="10.3125" fill="#FFFFFF"/></g></g></g><text fill="#FFFFFF" font-family="Montserrat Medium,Montserrat Medium_MSFontService,sans-serif" font-weight="500" font-size="73" transform="matrix(1 0 0 1 1937.32 1457)">Needs Review</text></g></svg>